<svg width="137" height="72" viewBox="0 0 137 72" fill="none" xmlns="http://www.w3.org/2000/svg">
<path d="M4.95784 61.7617L8.09843 61.7491C8.59062 61.7472 8.84046 61.7072 9.06664 61.6124C9.59701 61.3915 10.0014 60.9212 9.99874 60.2649C9.99614 59.6165 9.60362 59.1415 9.05584 58.9172C8.8289 58.8243 8.58653 58.7784 8.07872 58.7805L4.94594 58.793L4.95784 61.7617ZM4.98386 68.2539L3.11669 68.2613L3.07178 57.0583L8.30611 57.0374C9.17329 57.0339 9.74419 57.18 10.2297 57.4593C11.2006 57.9789 11.8374 58.9841 11.8425 60.2497C11.8474 61.4841 11.2187 62.51 10.2443 63.0452C9.76099 63.3206 9.19913 63.4791 8.33194 63.4826L4.96479 63.4961L4.98386 68.2539ZM18.8466 56.9951L20.9326 56.9867L24.0025 62.7167L26.9325 56.9627L29.0184 56.9543L24.7462 65.073C24.219 66.0751 23.8776 66.6703 23.3797 67.1957C22.804 67.7918 22.1026 68.2086 21.1651 68.2124C20.501 68.2151 19.8517 68.0068 19.2877 67.6184L20.2344 66.0286C20.5165 66.2307 20.8451 66.3387 21.181 66.3373C21.8373 66.3347 22.2341 65.9425 22.7382 65.0265C22.7459 64.9951 22.9941 64.5488 22.9941 64.5488L18.8466 56.9951ZM36.6059 56.9239L37.6136 56.9199L42.4886 62.7363L47.3089 56.881L48.3246 56.8769L48.3695 68.0799L46.4945 68.0875L46.4638 60.4391L42.499 65.3223L38.4873 60.4711L38.518 68.1194L36.6508 68.1269L36.6059 56.9239ZM56.3026 56.8372L65.7713 56.7992L65.7783 58.5492L61.9736 58.5644L62.0116 68.0253L60.1366 68.0328L60.0987 58.572L56.3096 58.5871L56.3026 56.8372ZM81.5832 67.9468L81.5519 60.1266L74.8021 67.974L73.7865 67.9781L73.7416 56.7751L75.6165 56.7675L75.6479 64.58C77.8952 61.9693 80.1425 59.3509 82.3977 56.7404L83.4133 56.7363L83.4582 67.9393L81.5832 67.9468ZM100.782 64.5417C100.787 65.8542 100.135 66.8958 99.1376 67.4467C98.6465 67.7222 98.0613 67.8808 97.1863 67.8843L92.0534 67.9048L92.0085 56.7018L99.735 56.6709L99.742 58.413L93.8827 58.4365L93.894 61.249L97.1596 61.2359C98.0346 61.2324 98.6211 61.3863 99.1067 61.6656C100.116 62.2006 100.777 63.2682 100.782 64.5417ZM98.9307 64.5491C98.9279 63.846 98.504 63.3398 97.9405 63.1C97.7057 63.0071 97.4477 62.9613 96.9477 62.9633L93.9009 62.9755L93.9137 66.163L96.9527 66.1508C97.4683 66.1487 97.7259 66.1009 97.9521 65.9984C98.5215 65.7617 98.9335 65.2444 98.9307 64.5491ZM108.83 56.6344L116.479 56.6037L116.486 58.338L110.712 58.3612L110.722 60.8222L115.199 60.8042L115.206 62.5229L110.729 62.5408L110.743 66.0955L116.517 66.0724L116.524 67.8067L108.875 67.8374L108.83 56.6344ZM124.074 56.5655L133.543 56.5275L133.55 58.2775L129.745 58.2928L129.783 67.7536L127.908 67.7611L127.87 58.3003L124.081 58.3155L124.074 56.5655Z" fill="white"/>
<mask id="mask0_1_165" style="mask-type:luminance" maskUnits="userSpaceOnUse" x="0" y="0" width="137" height="48">
<path d="M137 0H0V48H137V0Z" fill="white"/>
</mask>
<g mask="url(#mask0_1_165)">
<path d="M0.153499 27.9142C0.397899 27.8562 24.8152 22.0349 43.1998 13.8808C45.2449 12.9738 46.9008 12.4361 48.2956 12.1827C46.7329 13.7573 37.54 17.6827 44.882 18.3783C51.6186 19.0172 40.5214 27.0108 35.4343 29.917C22.0532 34.1597 13.3687 35.8259 13.2126 35.8555L13.3967 36.8371C13.4423 36.8284 14.2201 36.6793 15.6276 36.3679C23.0039 34.7354 47.7648 28.6221 76.1721 14.6517C80.1558 12.6925 83.4072 11.606 86.1436 11.2028C85.3414 15.3186 76.0532 24.42 90.8867 26.7182C104.416 28.8142 77.2846 34.1361 67.1729 36.8458C65.7145 37.2367 64.6097 37.5733 64.0327 37.8377C59.5683 39.8854 111.467 38.0435 134.676 37.9502C135.433 37.9769 136.206 37.9922 137 37.9922V36.9933C116.27 36.9933 108.928 27.5136 103.028 19.8966C96.8975 11.9809 92.0551 5.72774 75.7316 13.7553C71.9386 15.6195 68.1041 17.3982 64.2312 19.0902C60.8086 17.8722 58.7358 16.1204 56.9198 14.5827C53.5385 11.7195 51.0952 9.65046 42.9304 13.2725C24.6028 21.4006 0.243734 27.2086 0 27.2662L0.153499 27.9142Z" fill="#FDFDFD"/>
</g>
</svg>
